<svg width="33" height="111" viewBox="0 0 33 111" fill="none" xmlns="http://www.w3.org/2000/svg">
<ellipse cx="16.5" cy="16.5" rx="16.5" ry="16.5" transform="rotate(-180 16.5 16.5)" fill="#6D9279"/>
<ellipse cx="16.5" cy="94.5" rx="16.5" ry="16.5" transform="rotate(-180 16.5 94.5)" fill="#6D9279"/>
<ellipse cx="16.5" cy="68.5" rx="16.5" ry="16.5" transform="rotate(-180 16.5 68.5)" fill="#6D9279"/>
<ellipse cx="16.5" cy="42.5" rx="16.5" ry="16.5" transform="rotate(-180 16.5 42.5)" fill="#6D9279"/>
<mask id="path-5-outside-1_9_227" maskUnits="userSpaceOnUse" x="12" y="11" width="10" height="12" fill="black">
<rect fill="white" x="12" y="11" width="10" height="12"/>
<path d="M20.569 14.252C20.283 14.421 19.958 14.603 19.568 14.798C18.697 15.253 16.89 16.111 15.616 16.943C14.407 17.736 13.679 18.594 13.679 19.569C13.679 20.648 14.719 21.324 16.773 21.324C18.177 21.324 19.919 21.142 20.933 20.882L20.92 22.052C19.945 22.221 18.437 22.364 16.812 22.364C14.368 22.364 12.6 21.636 12.6 19.686C12.6 18.282 13.549 17.177 15.083 16.163C16.409 15.279 18.229 14.408 19.074 13.927C19.451 13.706 19.737 13.537 20.01 13.316L20.569 14.252ZM13.991 11.886C14.589 13.55 15.395 15.175 15.993 16.228L15.109 16.761C14.446 15.695 13.666 13.94 12.964 12.328L13.991 11.886Z"/>
</mask>
<path d="M20.569 14.252C20.283 14.421 19.958 14.603 19.568 14.798C18.697 15.253 16.89 16.111 15.616 16.943C14.407 17.736 13.679 18.594 13.679 19.569C13.679 20.648 14.719 21.324 16.773 21.324C18.177 21.324 19.919 21.142 20.933 20.882L20.92 22.052C19.945 22.221 18.437 22.364 16.812 22.364C14.368 22.364 12.6 21.636 12.6 19.686C12.6 18.282 13.549 17.177 15.083 16.163C16.409 15.279 18.229 14.408 19.074 13.927C19.451 13.706 19.737 13.537 20.01 13.316L20.569 14.252ZM13.991 11.886C14.589 13.55 15.395 15.175 15.993 16.228L15.109 16.761C14.446 15.695 13.666 13.94 12.964 12.328L13.991 11.886Z" fill="white"/>
<path d="M20.569 14.252L20.6453 14.3811L20.7751 14.3045L20.6978 14.1751L20.569 14.252ZM19.568 14.798L19.5009 14.6638L19.4985 14.665L19.568 14.798ZM15.616 16.943L15.534 16.8174L15.5337 16.8176L15.616 16.943ZM20.933 20.882L21.083 20.8837L21.0852 20.6881L20.8957 20.7367L20.933 20.882ZM20.92 22.052L20.9456 22.1998L21.0686 22.1785L21.07 22.0537L20.92 22.052ZM15.083 16.163L15.1657 16.2881L15.1662 16.2878L15.083 16.163ZM19.074 13.927L19.1482 14.0574L19.1499 14.0564L19.074 13.927ZM20.01 13.316L20.1388 13.2391L20.0501 13.0906L19.9156 13.1994L20.01 13.316ZM13.991 11.886L14.1322 11.8353L14.0782 11.6852L13.9317 11.7482L13.991 11.886ZM15.993 16.228L16.0705 16.3565L16.1956 16.281L16.1234 16.1539L15.993 16.228ZM15.109 16.761L14.9816 16.8402L15.0598 16.9658L15.1865 16.8895L15.109 16.761ZM12.964 12.328L12.9047 12.1902L12.7663 12.2498L12.8265 12.3879L12.964 12.328ZM20.4927 14.1229C20.2091 14.2904 19.8872 14.4707 19.5009 14.6638L19.6351 14.9322C20.0288 14.7353 20.3569 14.5516 20.6453 14.3811L20.4927 14.1229ZM19.4985 14.665C18.6364 15.1154 16.8161 15.9801 15.534 16.8174L15.698 17.0686C16.9639 16.2419 18.7576 15.3906 19.6375 14.931L19.4985 14.665ZM15.5337 16.8176C14.3167 17.6158 13.529 18.513 13.529 19.569H13.829C13.829 18.675 14.4973 17.8562 15.6983 17.0684L15.5337 16.8176ZM13.529 19.569C13.529 20.1668 13.8217 20.6523 14.3797 20.9804C14.9292 21.3035 15.7333 21.474 16.773 21.474V21.174C15.7587 21.174 15.0158 21.0065 14.5318 20.7218C14.0563 20.4422 13.829 20.0502 13.829 19.569H13.529ZM16.773 21.474C18.1852 21.474 19.9405 21.2913 20.9703 21.0273L20.8957 20.7367C19.8975 20.9927 18.1688 21.174 16.773 21.174V21.474ZM20.783 20.8803L20.77 22.0503L21.07 22.0537L21.083 20.8837L20.783 20.8803ZM20.8944 21.9042C19.9288 22.0716 18.4294 22.214 16.812 22.214V22.514C18.4446 22.514 19.9612 22.3704 20.9456 22.1998L20.8944 21.9042ZM16.812 22.214C15.6003 22.214 14.578 22.0328 13.8637 21.6259C13.1609 21.2256 12.75 20.6047 12.75 19.686H12.45C12.45 20.7173 12.9231 21.4354 13.7153 21.8866C14.496 22.3312 15.5797 22.514 16.812 22.514V22.214ZM12.75 19.686C12.75 18.3607 13.6427 17.2949 15.1657 16.2881L15.0003 16.0379C13.4553 17.0591 12.45 18.2033 12.45 19.686H12.75ZM15.1662 16.2878C16.488 15.4066 18.2861 14.5481 19.1482 14.0574L18.9998 13.7966C18.1719 14.2679 16.33 15.1514 14.9998 16.0382L15.1662 16.2878ZM19.1499 14.0564C19.5253 13.8363 19.8212 13.6619 20.1044 13.4326L19.9156 13.1994C19.6528 13.4121 19.3767 13.5757 18.9981 13.7976L19.1499 14.0564ZM19.8812 13.3929L20.4402 14.3289L20.6978 14.1751L20.1388 13.2391L19.8812 13.3929ZM13.8498 11.9367C14.4513 13.6104 15.2613 15.2433 15.8626 16.3021L16.1234 16.1539C15.5287 15.1067 14.7267 13.4896 14.1322 11.8353L13.8498 11.9367ZM15.9155 16.0995L15.0315 16.6325L15.1865 16.8895L16.0705 16.3565L15.9155 16.0995ZM15.2364 16.6818C14.5804 15.6271 13.8049 13.8834 13.1015 12.2681L12.8265 12.3879C13.5271 13.9966 14.3116 15.7629 14.9816 16.8402L15.2364 16.6818ZM13.0233 12.4658L14.0503 12.0238L13.9317 11.7482L12.9047 12.1902L13.0233 12.4658Z" fill="white" mask="url(#path-5-outside-1_9_227)"/>
<mask id="path-7-outside-2_9_227" maskUnits="userSpaceOnUse" x="12" y="37" width="9" height="12" fill="black">
<rect fill="white" x="12" y="37" width="9" height="12"/>
<path d="M14.394 37.743C14.121 38.705 13.874 40.46 13.796 41.37C14.329 40.031 15.681 38.406 17.332 38.406C19.048 38.406 20.296 40.148 20.296 42.878C20.296 46.479 18.021 48.078 14.81 48.663L14.186 47.727C17.02 47.298 19.217 46.154 19.217 42.891C19.217 40.837 18.528 39.355 17.163 39.355C15.538 39.355 14.03 41.721 13.874 43.424C13.809 43.918 13.809 44.373 13.9 45.023L12.886 45.101C12.821 44.607 12.756 43.879 12.756 43.034C12.756 41.799 13.003 39.888 13.159 38.822C13.211 38.432 13.237 38.068 13.263 37.704L14.394 37.743Z"/>
</mask>
<path d="M14.394 37.743C14.121 38.705 13.874 40.46 13.796 41.37C14.329 40.031 15.681 38.406 17.332 38.406C19.048 38.406 20.296 40.148 20.296 42.878C20.296 46.479 18.021 48.078 14.81 48.663L14.186 47.727C17.02 47.298 19.217 46.154 19.217 42.891C19.217 40.837 18.528 39.355 17.163 39.355C15.538 39.355 14.03 41.721 13.874 43.424C13.809 43.918 13.809 44.373 13.9 45.023L12.886 45.101C12.821 44.607 12.756 43.879 12.756 43.034C12.756 41.799 13.003 39.888 13.159 38.822C13.211 38.432 13.237 38.068 13.263 37.704L14.394 37.743Z" fill="white"/>
<path d="M14.394 37.743L14.5383 37.784L14.5906 37.5997L14.3992 37.5931L14.394 37.743ZM13.796 41.37L13.6465 41.3572L13.9354 41.4255L13.796 41.37ZM14.81 48.663L14.6852 48.7462L14.7399 48.8282L14.8369 48.8106L14.81 48.663ZM14.186 47.727L14.1635 47.5787L13.9304 47.614L14.0612 47.8102L14.186 47.727ZM13.874 43.424L14.0228 43.4436L14.0234 43.4377L13.874 43.424ZM13.9 45.023L13.9115 45.1726L14.0707 45.1603L14.0486 45.0022L13.9 45.023ZM12.886 45.101L12.7373 45.1206L12.7558 45.2615L12.8975 45.2506L12.886 45.101ZM13.159 38.822L13.3074 38.8437L13.3077 38.8418L13.159 38.822ZM13.263 37.704L13.2682 37.5541L13.1237 37.5491L13.1134 37.6933L13.263 37.704ZM14.2497 37.702C13.9729 38.6775 13.7249 40.4434 13.6465 41.3572L13.9455 41.3828C14.0231 40.4766 14.2691 38.7325 14.5383 37.784L14.2497 37.702ZM13.9354 41.4255C14.1944 40.7746 14.6538 40.0526 15.2474 39.4952C15.8414 38.9376 16.5573 38.556 17.332 38.556V38.256C16.4557 38.256 15.6701 38.6869 15.0421 39.2765C14.4137 39.8664 13.9306 40.6263 13.6566 41.3145L13.9354 41.4255ZM17.332 38.556C18.1328 38.556 18.8303 38.9602 19.3333 39.7024C19.8385 40.4477 20.146 41.5339 20.146 42.878H20.446C20.446 41.4921 20.1295 40.3423 19.5817 39.5341C19.0317 38.7228 18.2472 38.256 17.332 38.256V38.556ZM20.146 42.878C20.146 44.6438 19.5898 45.9022 18.6537 46.7928C17.7131 47.6878 16.3737 48.2257 14.7831 48.5154L14.8369 48.8106C16.4573 48.5153 17.8609 47.9612 18.8605 47.0102C19.8647 46.0548 20.446 44.7132 20.446 42.878H20.146ZM14.9348 48.5798L14.3108 47.6438L14.0612 47.8102L14.6852 48.7462L14.9348 48.5798ZM14.2085 47.8753C15.6352 47.6593 16.9252 47.2606 17.8599 46.4873C18.8024 45.7075 19.367 44.5609 19.367 42.891H19.067C19.067 44.4841 18.5331 45.541 17.6686 46.2562C16.7963 46.9779 15.5708 47.3657 14.1635 47.5787L14.2085 47.8753ZM19.367 42.891C19.367 41.8507 19.193 40.9386 18.8335 40.2808C18.4705 39.6167 17.9121 39.205 17.163 39.205V39.505C17.7789 39.505 18.2475 39.8343 18.5703 40.4247C18.8965 41.0214 19.067 41.8773 19.067 42.891H19.367ZM17.163 39.205C16.279 39.205 15.4568 39.8436 14.8474 40.6612C14.2341 41.4839 13.8056 42.5269 13.7246 43.4103L14.0234 43.4377C14.0984 42.6181 14.5019 41.6266 15.0879 40.8405C15.6777 40.0494 16.422 39.505 17.163 39.505V39.205ZM13.7253 43.4044C13.6583 43.9135 13.6588 44.3822 13.7514 45.0438L14.0486 45.0022C13.9592 44.3638 13.9597 43.9225 14.0227 43.4436L13.7253 43.4044ZM13.8885 44.8734L12.8745 44.9514L12.8975 45.2506L13.9115 45.1726L13.8885 44.8734ZM13.0347 45.0814C12.9705 44.593 12.906 43.8716 12.906 43.034H12.606C12.606 43.8864 12.6715 44.621 12.7373 45.1206L13.0347 45.0814ZM12.906 43.034C12.906 41.8114 13.1513 39.9106 13.3074 38.8437L13.0106 38.8003C12.8547 39.8654 12.606 41.7866 12.606 43.034H12.906ZM13.3077 38.8418C13.3604 38.4466 13.3867 38.0782 13.4126 37.7147L13.1134 37.6933C13.0873 38.0578 13.0616 38.4174 13.0103 38.8022L13.3077 38.8418ZM13.2578 37.8539L14.3888 37.8929L14.3992 37.5931L13.2682 37.5541L13.2578 37.8539Z" fill="white" mask="url(#path-7-outside-2_9_227)"/>
<mask id="path-9-outside-3_9_227" maskUnits="userSpaceOnUse" x="12" y="63" width="8" height="13" fill="black">
<rect fill="white" x="12" y="63" width="8" height="13"/>
<path d="M19.152 64.419C18.866 64.627 18.463 64.978 18.255 65.16C17.358 65.94 15.486 67.409 14.524 68.215C13.744 68.891 13.731 69.086 14.576 69.788C15.759 70.763 18.06 72.609 19.438 74L18.515 74.845C18.242 74.533 17.93 74.221 17.618 73.896C16.695 72.96 14.732 71.27 13.51 70.269C12.288 69.242 12.431 68.683 13.601 67.695C14.589 66.876 16.565 65.316 17.436 64.432C17.696 64.172 18.034 63.795 18.177 63.561L19.152 64.419Z"/>
</mask>
<path d="M19.152 64.419C18.866 64.627 18.463 64.978 18.255 65.16C17.358 65.94 15.486 67.409 14.524 68.215C13.744 68.891 13.731 69.086 14.576 69.788C15.759 70.763 18.06 72.609 19.438 74L18.515 74.845C18.242 74.533 17.93 74.221 17.618 73.896C16.695 72.96 14.732 71.27 13.51 70.269C12.288 69.242 12.431 68.683 13.601 67.695C14.589 66.876 16.565 65.316 17.436 64.432C17.696 64.172 18.034 63.795 18.177 63.561L19.152 64.419Z" fill="white"/>
<path d="M19.152 64.419L19.2402 64.5403L19.3917 64.4301L19.2511 64.3064L19.152 64.419ZM18.255 65.16L18.3534 65.2732L18.3538 65.2729L18.255 65.16ZM14.524 68.215L14.4277 68.1L14.4258 68.1016L14.524 68.215ZM14.576 69.788L14.4801 69.9034L14.4806 69.9038L14.576 69.788ZM19.438 74L19.5393 74.1106L19.6544 74.0053L19.5446 73.8944L19.438 74ZM18.515 74.845L18.4021 74.9438L18.5031 75.0592L18.6163 74.9556L18.515 74.845ZM17.618 73.896L17.7262 73.7921L17.7248 73.7907L17.618 73.896ZM13.51 70.269L13.4135 70.3838L13.4149 70.385L13.51 70.269ZM13.601 67.695L13.5053 67.5795L13.5042 67.5804L13.601 67.695ZM17.436 64.432L17.3299 64.3259L17.3292 64.3267L17.436 64.432ZM18.177 63.561L18.2761 63.4484L18.1421 63.3305L18.049 63.4828L18.177 63.561ZM19.0638 64.2977C18.7712 64.5105 18.3628 64.8663 18.1562 65.0471L18.3538 65.2729C18.5632 65.0897 18.9608 64.7435 19.2402 64.5403L19.0638 64.2977ZM18.1566 65.0468C17.2583 65.828 15.3994 67.2859 14.4277 68.1L14.6203 68.33C15.5726 67.5321 17.4577 66.052 18.3534 65.2732L18.1566 65.0468ZM14.4258 68.1016C14.2304 68.271 14.0736 68.418 13.9663 68.5546C13.8584 68.6918 13.7871 68.8351 13.7907 68.9951C13.7942 69.1541 13.871 69.2975 13.9861 69.4367C14.1011 69.5759 14.2681 69.7272 14.4801 69.9034L14.6719 69.6726C14.4614 69.4978 14.3131 69.3615 14.2173 69.2456C14.1215 69.1297 14.092 69.0504 14.0906 68.9884C14.0892 68.9274 14.1146 68.8513 14.2022 68.7399C14.2902 68.6279 14.4276 68.497 14.6222 68.3284L14.4258 68.1016ZM14.4806 69.9038C15.6677 70.8821 17.9603 72.7215 19.3314 74.1056L19.5446 73.8944C18.1597 72.4965 15.8503 70.6439 14.6714 69.6722L14.4806 69.9038ZM19.3367 73.8894L18.4137 74.7344L18.6163 74.9556L19.5393 74.1106L19.3367 73.8894ZM18.6279 74.7462C18.3518 74.4308 18.0352 74.114 17.7262 73.7921L17.5098 73.9999C17.8248 74.328 18.1322 74.6352 18.4021 74.9438L18.6279 74.7462ZM17.7248 73.7907C16.7958 72.8486 14.8275 71.1543 13.6051 70.153L13.4149 70.385C14.6365 71.3857 16.5942 73.0714 17.5112 74.0013L17.7248 73.7907ZM13.6065 70.1542C12.9951 69.6403 12.7849 69.2883 12.8081 68.9785C12.8198 68.8221 12.8918 68.6548 13.0404 68.4608C13.1894 68.2662 13.4081 68.0543 13.6978 67.8096L13.5042 67.5804C13.2089 67.8297 12.9709 68.0581 12.8023 68.2784C12.6332 68.4991 12.5265 68.7211 12.5089 68.9562C12.4736 69.4297 12.8029 69.8707 13.4135 70.3838L13.6065 70.1542ZM13.6967 67.8105C14.6772 66.9978 16.6648 65.4285 17.5428 64.5373L17.3292 64.3267C16.4652 65.2035 14.5008 66.7542 13.5053 67.5795L13.6967 67.8105ZM17.5421 64.5381C17.8026 64.2775 18.1519 63.8897 18.305 63.6392L18.049 63.4828C17.9161 63.7003 17.5894 64.0665 17.3299 64.3259L17.5421 64.5381ZM18.0779 63.6736L19.0529 64.5316L19.2511 64.3064L18.2761 63.4484L18.0779 63.6736Z" fill="white" mask="url(#path-9-outside-3_9_227)"/>
<mask id="path-11-outside-4_9_227" maskUnits="userSpaceOnUse" x="10" y="90" width="13" height="11" fill="black">
<rect fill="white" x="10" y="90" width="13" height="11"/>
<path d="M12.899 90.471C13.224 90.497 13.601 90.51 13.874 90.51C14.563 90.51 16.266 90.432 16.812 90.38C17.059 90.367 17.28 90.315 17.462 90.25L18.112 90.77C17.982 90.913 17.878 91.043 17.774 91.212C17.358 91.888 16.643 93.552 16.045 94.891C15.525 96.035 14.81 97.803 14.251 98.609C13.796 99.272 13.289 99.519 12.613 99.519C11.651 99.519 10.936 98.817 10.936 97.738C10.936 95.775 12.782 94.28 15.421 94.28C18.346 94.28 20.92 95.84 22.324 96.841L21.843 97.946C20.322 96.633 17.943 95.19 15.265 95.19C13.107 95.19 11.872 96.399 11.872 97.595C11.872 98.18 12.249 98.479 12.652 98.479C12.951 98.479 13.172 98.375 13.445 98.024C13.978 97.322 14.563 95.814 15.057 94.722C15.577 93.591 16.162 92.252 16.604 91.329C16.084 91.342 14.498 91.42 13.913 91.446C13.627 91.459 13.25 91.498 12.938 91.537L12.899 90.471ZM21.024 93.318C20.842 97.023 20.088 99.272 17.059 100.793L16.201 100.078C19.256 98.791 19.815 96.334 19.958 94.41C19.984 94.02 19.997 93.578 19.958 93.201L21.024 93.318Z"/>
</mask>
<path d="M12.899 90.471C13.224 90.497 13.601 90.51 13.874 90.51C14.563 90.51 16.266 90.432 16.812 90.38C17.059 90.367 17.28 90.315 17.462 90.25L18.112 90.77C17.982 90.913 17.878 91.043 17.774 91.212C17.358 91.888 16.643 93.552 16.045 94.891C15.525 96.035 14.81 97.803 14.251 98.609C13.796 99.272 13.289 99.519 12.613 99.519C11.651 99.519 10.936 98.817 10.936 97.738C10.936 95.775 12.782 94.28 15.421 94.28C18.346 94.28 20.92 95.84 22.324 96.841L21.843 97.946C20.322 96.633 17.943 95.19 15.265 95.19C13.107 95.19 11.872 96.399 11.872 97.595C11.872 98.18 12.249 98.479 12.652 98.479C12.951 98.479 13.172 98.375 13.445 98.024C13.978 97.322 14.563 95.814 15.057 94.722C15.577 93.591 16.162 92.252 16.604 91.329C16.084 91.342 14.498 91.42 13.913 91.446C13.627 91.459 13.25 91.498 12.938 91.537L12.899 90.471ZM21.024 93.318C20.842 97.023 20.088 99.272 17.059 100.793L16.201 100.078C19.256 98.791 19.815 96.334 19.958 94.41C19.984 94.02 19.997 93.578 19.958 93.201L21.024 93.318Z" fill="white"/>
<path d="M12.899 90.471L12.911 90.3215L12.7429 90.308L12.7491 90.4765L12.899 90.471ZM16.812 90.38L16.8041 90.2301L16.7978 90.2307L16.812 90.38ZM17.462 90.25L17.5557 90.1329L17.4904 90.0806L17.4115 90.1087L17.462 90.25ZM18.112 90.77L18.223 90.8709L18.3305 90.7527L18.2057 90.6529L18.112 90.77ZM17.774 91.212L17.9017 91.2906V91.2906L17.774 91.212ZM16.045 94.891L16.1816 94.9531L16.182 94.9522L16.045 94.891ZM14.251 98.609L14.1277 98.5235L14.1273 98.5241L14.251 98.609ZM22.324 96.841L22.4615 96.9009L22.51 96.7894L22.4111 96.7189L22.324 96.841ZM21.843 97.946L21.745 98.0595L21.8992 98.1927L21.9805 98.0059L21.843 97.946ZM13.445 98.024L13.5634 98.1161L13.5645 98.1147L13.445 98.024ZM15.057 94.722L14.9207 94.6593L14.9203 94.6602L15.057 94.722ZM16.604 91.329L16.7393 91.3938L16.8451 91.1729L16.6003 91.179L16.604 91.329ZM13.913 91.446L13.9063 91.2961L13.9062 91.2962L13.913 91.446ZM12.938 91.537L12.7881 91.5425L12.7941 91.7062L12.9566 91.6858L12.938 91.537ZM21.024 93.318L21.1738 93.3254L21.1807 93.1843L21.0404 93.1689L21.024 93.318ZM17.059 100.793L16.963 100.908L17.0385 100.971L17.1263 100.927L17.059 100.793ZM16.201 100.078L16.1428 99.9398L15.9156 100.035L16.105 100.193L16.201 100.078ZM19.958 94.41L20.1076 94.4211L20.1077 94.42L19.958 94.41ZM19.958 93.201L19.9744 93.0519L19.7897 93.0316L19.8088 93.2164L19.958 93.201ZM12.887 90.6205C13.2163 90.6469 13.5973 90.66 13.874 90.66V90.36C13.6047 90.36 13.2317 90.3471 12.911 90.3215L12.887 90.6205ZM13.874 90.66C14.5672 90.66 16.275 90.5818 16.8262 90.5293L16.7978 90.2307C16.257 90.2822 14.5588 90.36 13.874 90.36V90.66ZM16.8199 90.5298C17.083 90.5159 17.3184 90.4606 17.5125 90.3913L17.4115 90.1087C17.2416 90.1694 17.035 90.2181 16.8041 90.2302L16.8199 90.5298ZM17.3683 90.3671L18.0183 90.8871L18.2057 90.6529L17.5557 90.1329L17.3683 90.3671ZM18.001 90.6691C17.8666 90.8169 17.7564 90.9544 17.6463 91.1334L17.9017 91.2906C17.9996 91.1316 18.0974 91.0091 18.223 90.8709L18.001 90.6691ZM17.6463 91.1334C17.2234 91.8205 16.5021 93.4997 15.908 94.8298L16.182 94.9522C16.7839 93.6043 17.4926 91.9555 17.9017 91.2906L17.6463 91.1334ZM15.9084 94.8289C15.7779 95.116 15.6353 95.4421 15.4866 95.7809C15.3377 96.1202 15.1825 96.4727 15.0262 96.8144C14.7122 97.501 14.3986 98.1329 14.1277 98.5235L14.3743 98.6945C14.6624 98.2791 14.9858 97.624 15.299 96.9391C15.4564 96.5951 15.6124 96.2407 15.7613 95.9015C15.9103 95.5619 16.0521 95.238 16.1816 94.9531L15.9084 94.8289ZM14.1273 98.5241C13.9097 98.8413 13.6858 99.05 13.4437 99.1806C13.2021 99.3109 12.932 99.369 12.613 99.369V99.669C12.97 99.669 13.2914 99.6036 13.5861 99.4446C13.8802 99.286 14.1373 99.0397 14.3747 98.6939L14.1273 98.5241ZM12.613 99.369C12.1696 99.369 11.7904 99.2079 11.5218 98.9291C11.253 98.6501 11.086 98.2437 11.086 97.738H10.786C10.786 98.3113 10.9765 98.7954 11.3057 99.1372C11.6351 99.4791 12.0944 99.669 12.613 99.669V99.369ZM11.086 97.738C11.086 95.89 12.8285 94.43 15.421 94.43V94.13C12.7355 94.13 10.786 95.66 10.786 97.738H11.086ZM15.421 94.43C18.297 94.43 20.8385 95.9661 22.2369 96.9631L22.4111 96.7189C21.0015 95.7139 18.395 94.13 15.421 94.13V94.43ZM22.1865 96.7811L21.7055 97.8861L21.9805 98.0059L22.4615 96.9009L22.1865 96.7811ZM21.941 97.8325C20.4075 96.5087 17.9946 95.04 15.265 95.04V95.34C17.8914 95.34 20.2365 96.7573 21.745 98.0595L21.941 97.8325ZM15.265 95.04C13.0608 95.04 11.722 96.2837 11.722 97.595H12.022C12.022 96.5143 13.1532 95.34 15.265 95.34V95.04ZM11.722 97.595C11.722 97.9209 11.8278 98.1814 12.0036 98.3613C12.1786 98.5402 12.4133 98.629 12.652 98.629V98.329C12.4877 98.329 12.3324 98.2683 12.2181 98.1515C12.1047 98.0356 12.022 97.8541 12.022 97.595H11.722ZM12.652 98.629C12.8206 98.629 12.9769 98.5993 13.1307 98.5145C13.2818 98.4312 13.42 98.3005 13.5634 98.1161L13.3266 97.9319C13.197 98.0985 13.0882 98.1953 12.9858 98.2518C12.8861 98.3067 12.7824 98.329 12.652 98.329V98.629ZM13.5645 98.1147C13.8422 97.7489 14.1277 97.1822 14.4021 96.5816C14.5401 96.2795 14.6767 95.9654 14.8093 95.6596C14.9421 95.3532 15.0708 95.0555 15.1937 94.7838L14.9203 94.6602C14.7962 94.9345 14.6665 95.2348 14.5341 95.5402C14.4014 95.8462 14.2658 96.1578 14.1292 96.4569C13.8543 97.0588 13.5808 97.5971 13.3255 97.9333L13.5645 98.1147ZM15.1933 94.7847C15.7155 93.6488 16.2976 92.316 16.7393 91.3938L16.4687 91.2642C16.0264 92.188 15.4385 93.5332 14.9207 94.6593L15.1933 94.7847ZM16.6003 91.179C16.0783 91.1921 14.4889 91.2703 13.9063 91.2961L13.9197 91.5959C14.5071 91.5697 16.0897 91.4919 16.6077 91.479L16.6003 91.179ZM13.9062 91.2962C13.6144 91.3094 13.2328 91.349 12.9194 91.3882L12.9566 91.6858C13.2672 91.647 13.6396 91.6086 13.9198 91.5958L13.9062 91.2962ZM13.0879 91.5315L13.0489 90.4655L12.7491 90.4765L12.7881 91.5425L13.0879 91.5315ZM20.8742 93.3106C20.7834 95.1577 20.5505 96.6214 19.9742 97.809C19.4008 98.9905 18.4814 99.9109 16.9917 100.659L17.1263 100.927C18.6656 100.154 19.6377 99.1895 20.2441 97.94C20.8475 96.6966 21.0826 95.1833 21.1738 93.3254L20.8742 93.3106ZM17.155 100.678L16.297 99.9628L16.105 100.193L16.963 100.908L17.155 100.678ZM16.2592 100.216C17.8183 99.5595 18.7481 98.5996 19.304 97.5532C19.8578 96.5107 20.0355 95.3913 20.1076 94.4211L19.8084 94.3989C19.7375 95.3527 19.5642 96.4238 19.039 97.4125C18.5159 98.3974 17.6387 99.3095 16.1428 99.9398L16.2592 100.216ZM20.1077 94.42C20.1338 94.0275 20.1475 93.5754 20.1072 93.1856L19.8088 93.2164C19.8465 93.5806 19.8342 94.0125 19.8083 94.4L20.1077 94.42ZM19.9416 93.3501L21.0076 93.4671L21.0404 93.1689L19.9744 93.0519L19.9416 93.3501Z" fill="white" mask="url(#path-11-outside-4_9_227)"/>
</svg>
