<svg width="22" height="22" viewBox="0 0 22 22" fill="none" xmlns="http://www.w3.org/2000/svg">
<path d="M20.5883 5.50033C19.8825 5.82116 19.1216 6.03199 18.3333 6.13283C19.14 5.64699 19.7633 4.87699 20.0566 3.95116C19.2958 4.40949 18.4525 4.73033 17.5633 4.91366C16.8391 4.12533 15.8216 3.66699 14.6666 3.66699C12.5125 3.66699 10.7525 5.42699 10.7525 7.59949C10.7525 7.91116 10.7891 8.21366 10.8533 8.49783C7.58996 8.33283 4.68412 6.76533 2.74995 4.39116C2.41079 4.96866 2.21829 5.64699 2.21829 6.36199C2.21829 7.72783 2.90579 8.93783 3.96912 9.62533C3.31829 9.62533 2.71329 9.44199 2.18162 9.16699V9.19449C2.18162 11.1012 3.53829 12.6962 5.33495 13.0537C4.75812 13.2115 4.15254 13.2335 3.56579 13.1178C3.81476 13.8993 4.30236 14.583 4.96005 15.073C5.61774 15.563 6.41245 15.8345 7.23245 15.8495C5.84245 16.9499 4.11945 17.5447 2.34662 17.5362C2.03495 17.5362 1.72329 17.5178 1.41162 17.4812C3.15329 18.5995 5.22495 19.2503 7.44329 19.2503C14.6666 19.2503 18.6358 13.2553 18.6358 8.05783C18.6358 7.88366 18.6358 7.71866 18.6266 7.54449C19.3966 6.99449 20.0566 6.29783 20.5883 5.50033Z" fill="white"/>
</svg>
