<svg width="22" height="22" viewBox="0 0 22 22" fill="none" xmlns="http://www.w3.org/2000/svg">
<path d="M9.16659 13.7497L13.9241 10.9997L9.16659 8.24967V13.7497ZM19.7633 6.57217C19.8824 7.00301 19.9649 7.58051 20.0199 8.31384C20.0841 9.04717 20.1116 9.67967 20.1116 10.2297L20.1666 10.9997C20.1666 13.0072 20.0199 14.483 19.7633 15.4272C19.5341 16.2522 19.0024 16.7838 18.1774 17.013C17.7466 17.1322 16.9583 17.2147 15.7483 17.2697C14.5566 17.3338 13.4658 17.3613 12.4574 17.3613L10.9999 17.4163C7.15909 17.4163 4.76659 17.2697 3.82242 17.013C2.99742 16.7838 2.46575 16.2522 2.23659 15.4272C2.11742 14.9963 2.03492 14.4188 1.97992 13.6855C1.91575 12.9522 1.88825 12.3197 1.88825 11.7697L1.83325 10.9997C1.83325 8.99217 1.97992 7.51634 2.23659 6.57217C2.46575 5.74717 2.99742 5.21551 3.82242 4.98634C4.25325 4.86717 5.04159 4.78467 6.25159 4.72967C7.44325 4.66551 8.53409 4.63801 9.54242 4.63801L10.9999 4.58301C14.8408 4.58301 17.2333 4.72967 18.1774 4.98634C19.0024 5.21551 19.5341 5.74717 19.7633 6.57217Z" fill="white"/>
</svg>
